Patient4_TMGait_0pt4_01_right_27_EMG.mot
version=1
nRows=20
nColumns=33
inDegrees=no
endheader
time	1LAddLong	2LGlutMax	3LGlutMed	4LIliopsoas	5LSemiMemb	6LBicFemLong	7LRecFem	8LVastMed	9LVastLat	10LGasMed	11LTibAnt	12lTibPost	13LPeroneusLong	14LSol	15LExtDigLong	16LFlexDigLong	17RAddLong	18RGlutMax	19RGlutMed	20RIliopsoas	21RSemiMemb	22RBicFemLong	23RRecFem	24RVastMed	25RVastLat	26RGasMed	27RTibAnt	28RTibPost	29RPeroneusLong	30RSol	31RExtDigLong	32RFlexDigLong
35.275	-0.013275	0.22919	0.069733	-0.021973	0.011749	0.029602	-0.028229	0.002747	0.025177	-0.067291	0.16403	0.004883	0.062103	0.19516	-0.21454	-0.002136	-0.07019	-0.80383	0.6105	0.039978	0.23209	-0.088806	0.54565	0.10147	-0.06546	0.018463	-0.018616	-0.03418	0.18784	-0.53421	0.000153	-0.000916
35.276	0.001831	0.23605	0.083771	-0.012054	0.00885	0.03006	-0.005493	0.005646	0.041046	-0.05722	0.19028	-0.00351	-0.025635	0.17197	0.008698	0.001373	0.015717	-0.84701	1.1984	-0.12894	0.45898	-0.4361	0.77225	-0.031128	-0.15182	0.013123	-0.021973	-0.034485	0.23117	-0.33356	-0.003357	0.004425
35.277	0.006714	0.24612	0.088501	-0.000305	0.011902	0.018921	-0.010071	0.009003	0.046234	-0.041656	0.019073	-0.009918	-0.048676	0.078735	-0.29663	-0.038757	0.055389	-0.79239	0.4454	-0.088501	0.35172	-0.43045	0.6311	0.60883	-0.13596	0.005646	0.015869	-0.033417	0.15198	-0.51788	-0.003662	-0.006256
35.278	0.00885	0.23514	0.054169	-0.016174	0.006256	0.011749	0.002747	0.006714	0.066681	-0.010986	-0.05722	0.003052	-0.029755	0.034485	-0.54153	-0.01236	0.043182	-0.82764	0.065002	0.005341	0.14358	-0.22461	0.26977	0.53024	-0.072632	-0.013123	0.01358	-0.037231	0.086823	-0.59631	-0.005798	-0.001984
35.279	0.00061	0.28336	0.037689	0.001526	0.007477	0.020599	0.006256	0.006104	0.092926	0.007019	0.050507	-0.009308	-0.01297	-0.076904	-0.43533	-0.025024	0.018005	-0.75348	-0.027771	0.026245	0.077972	-0.053406	0.094757	0.29053	0.056458	-0.027924	0.010834	-0.030212	0.041199	-0.44357	-0.001678	-0.000305
35.28	0.004425	0.27191	0.040588	0.009003	0.01236	0.020599	0.012512	-0.003204	0.10376	0.002441	-0.050507	-0.002747	0.00824	-0.081635	0.034027	-0.024109	-0.057678	-0.76126	-0.39887	0.046082	-0.083618	-0.094299	0.1236	0.15152	0.12955	-0.020142	0.011444	-0.021667	0.032501	0.21133	-0.001221	-0.00061
35.281	0.002594	0.2359	0.026703	0.000458	0.014954	0.013885	0.004883	-0.004425	0.098267	-0.006409	-0.14893	-0.003815	-0.028534	0.029144	-0.12878	-0.029907	-0.089417	-0.90042	-0.97443	0.027313	-0.15869	-0.27679	0.11627	-0.077209	0.099182	0.019379	0.012512	0.000153	0.005646	0.13092	-0.003204	-0.003815
35.282	-0.000153	0.24841	-0.013123	0.016174	0.019531	0.009613	0.009918	-0.003662	0.112	-0.005341	-0.070496	-0.006256	-0.080566	0.1294	-0.1503	-0.019684	-0.058899	-1.0039	-0.54733	0.002289	-0.17532	-0.37811	0.20523	-0.27969	0.071716	0.00412	0.032349	-0.007782	-0.03891	-0.066681	-0.002289	-0.014038
35.283	-0.001068	0.24857	-0.020905	0.05661	0.025024	0.033417	0.014496	0.001221	0.11032	0.023041	0.048981	0.009766	-0.067291	0.096893	-0.25925	-0.008087	-0.018005	-1.0951	-0.27191	0.031433	-0.058594	-0.4277	0.40237	-0.51285	0.11215	-0.009308	0.04364	-0.021057	0.14404	-0.11826	-0.001221	-0.012054
35.284	-0.002136	0.2713	-0.012665	0.046387	0.016632	0.00885	0.007935	-0.000763	0.12573	-0.019989	0.16541	-0.003967	-0.064087	-0.078583	0.21866	-0.015106	-0.010376	-1.1223	-0.40863	0.030212	-0.18387	-0.33646	0.48706	-0.34378	0.091705	-0.014648	0.08316	0.007782	0.12695	-0.14069	-0.001068	-0.011292
35.285	-0.00824	0.29648	-0.031738	0.008698	0.006409	0.015106	0.014648	0.001221	0.13611	0.037689	0.21881	-0.006866	-0.039215	-0.10544	0.1297	-0.013733	-0.041504	-1.156	-0.64224	0.014954	-0.2449	-0.21912	0.45517	-0.096588	0.050659	0.02182	0.075989	0.015869	0.018005	0.019073	-0.001526	-0.019379
35.286	-0.009918	0.30029	-0.047607	-0.021362	0.018158	0.029297	0.002136	-0.000458	0.13641	0.034485	0.26688	-0.003662	-0.0383	-0.16724	0.082855	-0.016174	-0.019073	-1.1813	-0.78171	0.007782	-0.024719	-0.13351	0.32059	0.043793	0.21454	0.044708	-0.024414	-0.011902	0.18707	0.085907	-0.001831	-0.014801
35.287	-0.004578	0.33707	-0.063324	0.004578	0.009766	0.007324	0.002136	0.006561	0.14832	0.040436	0.31235	-0.002594	-0.060883	-0.18158	0.59097	-0.01236	-0.027924	-1.1659	-0.45548	-0.008545	-0.039368	0.019073	0.024567	0.06424	0.89355	0.054474	-0.037689	-0.020142	0.44754	0.16998	-0.003357	-0.011597
35.288	-0.005493	0.31006	-0.052643	0.029907	0.015717	0.006561	0.005341	0.00473	0.14008	0.001373	0.30594	0.00061	-0.025024	-0.068359	0.37964	-0.019989	-0.02655	-1.0323	-0.24536	0.027924	-0.039368	0.2356	-0.024719	-0.046082	0.94818	0.028381	-0.03418	-0.019226	0.34866	0.22751	-0.00412	-0.009003
35.289	-0.004425	0.30304	-0.079803	0.023346	0.006409	0.017548	0.041046	0.00473	0.14145	-0.037689	0.095978	-0.010529	0.00824	0.042572	0.93262	-0.013275	-0.000458	-0.95367	-0.52475	0.076752	-0.067291	0.28778	0.21408	-0.31784	0.54459	-0.019989	-0.002136	-0.001373	-0.065765	0.14389	-0.000458	-0.014801
35.29	-0.018768	0.31204	-0.085602	-0.015717	0.005493	-0.008698	0.015717	-0.004425	0.13794	-0.06958	-0.36362	-0.002289	0.10819	0.11276	-0.27664	-0.017548	0.008392	-0.82214	-0.66009	0.08316	0.12161	0.27161	0.30289	-0.26825	0.099792	-0.046997	0.003204	0.002441	-0.32547	-0.070648	-0.002594	-0.006714
35.291	-0.007019	0.3186	-0.089111	-0.020142	0.010223	-0.003204	0.032654	0.001984	0.14221	-0.043182	-0.36407	0.002594	0.10773	0.14847	-0.34775	-0.021973	-0.003967	-0.76462	-0.26474	-0.076141	0.15381	0.2478	0.12131	-0.056	-0.20783	-0.091705	-0.00946	-0.015106	-0.32074	-0.31342	-0.004883	-0.016632
35.292	-0.005341	0.34286	-0.08667	-0.015717	0.014954	0.012207	0.035706	0.00412	0.12985	0.001831	-0.26428	0.001068	0.04715	0.12863	-0.25864	-0.028381	-0.029144	-0.65597	1.1064	-0.10071	-0.008392	0.14801	-0.14633	0.085754	-0.5481	-0.027924	-0.023193	-0.037994	-0.32349	-0.53131	-0.007172	-0.015411
35.293	-0.005035	0.31876	-0.097961	-0.004425	0.016327	0.007629	0.017548	0.002899	0.13809	-0.022278	-0.16037	-0.011444	-0.013733	0.046997	-0.36438	-0.011444	-0.016785	-0.57144	1.5919	-0.10208	-0.044708	-0.018463	-0.31082	0.15564	-0.85831	-0.038757	-0.006714	-0.032196	-0.088806	-0.4773	-0.009613	-0.011292
35.294	0.000458	0.29068	-0.11459	-0.010834	0.02533	-0.003815	0.058289	-0.000305	0.14252	-0.036774	-0.07843	0.002289	-0.007172	0.001068	-0.45822	-0.013733	-0.027466	-0.6929	-0.66208	-0.034485	0.044556	-0.18326	-0.48538	0.31433	-0.86914	-0.044556	-0.021667	0.071869	0.052643	-0.26199	-0.00412	-0.010376
